<?xml version="1.0" encoding="utf-8"?>
<!-- Generator: Adobe Illustrator 23.1.0, SVG Export Plug-In . SVG Version: 6.00 Build 0)  -->
<svg version="1.1" id="Слой_1" xmlns="http://www.w3.org/2000/svg" xmlns:xlink="http://www.w3.org/1999/xlink" x="0px" y="0px"
	 viewBox="0 0 180 180" style="enable-background:new 0 0 180 180;" xml:space="preserve">
<style type="text/css">
	.st0{fill:#222F5C;}
</style>
<g>
	<path class="st0" d="M60.7,82.6l-6.6,7.6c0,0,21.7,13.3,23.2,46.7C62.9,119.3,49,113.1,27,109.4c13.7-14.2,48.9-49.7,48.9-49.7
		L0,13c0,0,33.8,40.7,20.7,80.9l13.1-13.3c0,0,0.5-21.5-7.1-38.6l34.5,18.3L2.7,118.1c0,0,24.5-2.9,44.4,7.1
		c28.9,14.5,37,41.8,37,41.8S98.6,115.2,60.7,82.6z"/>
	<path class="st0" d="M153.3,42c-7.6,17.1-7.1,38.6-7.1,38.6l13.1,13.3C146.2,53.8,180,13,180,13l-75.9,46.7
		c0,0,35.2,35.4,48.9,49.7c-22,3.6-35.9,9.9-50.4,27.6c1.6-33.4,23.2-46.7,23.2-46.7l-6.6-7.6C81.4,115.2,95.8,167,95.8,167
		s8.1-27.4,37-41.8c19.9-10,44.4-7.1,44.4-7.1l-58.5-57.8L153.3,42z"/>
</g>
</svg>
