<?xml version="1.0" encoding="utf-8"?>
<!-- Generator: Adobe Illustrator 23.1.0, SVG Export Plug-In . SVG Version: 6.00 Build 0)  -->
<svg version="1.1" id="Слой_1" xmlns="http://www.w3.org/2000/svg" xmlns:xlink="http://www.w3.org/1999/xlink" x="0px" y="0px"
	 viewBox="0 0 16 16" style="enable-background:new 0 0 16 16;" xml:space="preserve">
<style type="text/css">
	.st0{fill:#222F5C;}
</style>
<g>
	<path class="st0" d="M5.4,7.3L4.8,8c0,0,1.9,1.2,2.1,4.2C5.6,10.6,4.4,10,2.4,9.7c1.2-1.3,4.3-4.4,4.3-4.4L0,1.2c0,0,3,3.6,1.8,7.2
		L3,7.2c0,0,0-1.9-0.6-3.4l3.1,1.6l-5.2,5.1c0,0,2.2-0.3,4,0.6c2.6,1.3,3.3,3.7,3.3,3.7S8.8,10.2,5.4,7.3z"/>
	<path class="st0" d="M13.6,3.7C12.9,5.3,13,7.2,13,7.2l1.2,1.2C13,4.8,16,1.2,16,1.2L9.3,5.3c0,0,3.1,3.2,4.3,4.4
		c-2,0.3-3.2,0.9-4.5,2.5c0.1-3,2.1-4.2,2.1-4.2l-0.6-0.7c-3.4,2.9-2.1,7.5-2.1,7.5s0.7-2.4,3.3-3.7c1.8-0.9,4-0.6,4-0.6l-5.2-5.1
		L13.6,3.7z"/>
</g>
</svg>
