<?xml version="1.0" encoding="utf-8"?>
<!-- Generator: Adobe Illustrator 23.1.0, SVG Export Plug-In . SVG Version: 6.00 Build 0)  -->
<svg version="1.1" id="Слой_1" xmlns="http://www.w3.org/2000/svg" xmlns:xlink="http://www.w3.org/1999/xlink" x="0px" y="0px"
	 viewBox="0 0 32 32" style="enable-background:new 0 0 32 32;" xml:space="preserve">
<style type="text/css">
	.st0{fill:#222F5C;}
</style>
<g>
	<path class="st0" d="M10.8,14.7L9.6,16c0,0,3.8,2.4,4.1,8.3c-2.6-3.1-5-4.3-9-4.9c2.4-2.5,8.7-8.8,8.7-8.8L0,2.3
		c0,0,6,7.2,3.7,14.4L6,14.3c0,0,0.1-3.8-1.3-6.9l6.1,3.2L0.5,21c0,0,4.4-0.5,7.9,1.3c5.1,2.6,6.6,7.4,6.6,7.4S17.5,20.5,10.8,14.7z
		"/>
	<path class="st0" d="M27.2,7.5c-1.4,3-1.3,6.9-1.3,6.9l2.3,2.4C26,9.6,32,2.3,32,2.3l-13.5,8.3c0,0,6.3,6.3,8.7,8.8
		c-3.9,0.6-6.4,1.8-9,4.9c0.3-5.9,4.1-8.3,4.1-8.3l-1.2-1.4c-6.7,5.8-4.2,15-4.2,15s1.4-4.9,6.6-7.4c3.5-1.8,7.9-1.3,7.9-1.3
		L21.1,10.7L27.2,7.5z"/>
</g>
</svg>
