<?xml version="1.0" encoding="utf-8"?>
<!-- Generator: Adobe Illustrator 23.1.0, SVG Export Plug-In . SVG Version: 6.00 Build 0)  -->
<svg version="1.1" id="Слой_2" xmlns="http://www.w3.org/2000/svg" xmlns:xlink="http://www.w3.org/1999/xlink" x="0px" y="0px"
	 viewBox="0 0 4000 4000" style="enable-background:new 0 0 4000 4000;" xml:space="preserve">
<style type="text/css">
	.st0{fill:#222F5C;}
</style>
<path class="st0" d="M1051.8,2002.7l154-156.4c0,0,6.3-251.9-83.3-452.6l405.2,214.3l-686.8,678.7c0,0,287.8-34,521.8,82.9
	c339.8,169.9,434.8,491,434.8,491s168.6-607.4-275.6-990l-77.6,89.6c0,0,254.2,156.5,272.9,548.5
	c-169.9-207.4-333.1-281-591.3-323.8c160.5-167.2,573.9-583.3,573.9-583.3l-891.1-548.3C808.7,1053.5,1205.2,1531.7,1051.8,2002.7z"
	/>
<path class="st0" d="M2678.7,2002.7l-154-156.4c0,0-6.3-251.9,83.3-452.6L2202.9,1608l686.8,678.7c0,0-287.8-34-521.8,82.9
	c-339.8,169.9-434.8,491-434.8,491s-168.6-607.4,275.6-990l77.6,89.6c0,0-254.2,156.5-272.9,548.5
	c169.9-207.4,333.1-281,591.3-323.8c-160.5-167.2-573.9-583.3-573.9-583.3l891.1-548.3C2921.9,1053.5,2525.3,1531.7,2678.7,2002.7z"
	/>
</svg>
