<?xml version="1.0" encoding="utf-8"?>
<!-- Generator: Adobe Illustrator 23.1.0, SVG Export Plug-In . SVG Version: 6.00 Build 0)  -->
<svg version="1.1" id="Слой_1" xmlns="http://www.w3.org/2000/svg" xmlns:xlink="http://www.w3.org/1999/xlink" x="0px" y="0px"
	 viewBox="0 0 50 39.8" style="enable-background:new 0 0 50 39.8;" xml:space="preserve">
<style type="text/css">
	.st0{opacity:0.11;fill-rule:evenodd;clip-rule:evenodd;fill:#222F5C;}
</style>
<path class="st0" d="M10.4,0c-2.9,0-5,2.5-4.9,5.2c0.1,2.6,0,6-0.9,8.7c-0.9,2.8-2.3,4.5-4.6,4.7v2.5c2.4,0.2,3.8,2,4.6,4.7
	c0.8,2.7,1,6.1,0.9,8.7c-0.1,2.7,2,5.2,4.9,5.2h29.2c2.9,0,5-2.5,4.9-5.2c-0.1-2.6,0-6,0.9-8.7c0.9-2.8,2.3-4.5,4.6-4.7v-2.5
	c-2.4-0.2-3.8-2-4.6-4.7c-0.8-2.7-1-6.1-0.9-8.7c0.1-2.7-2-5.2-4.9-5.2L10.4,0L10.4,0z M33.9,24.5c0,3.7-2.8,6-7.4,6h-7.9
	c-0.5,0-0.8-0.4-0.8-0.8l0,0V10.2c0-0.5,0.4-0.8,0.8-0.8h7.8c3.8,0,6.4,2.1,6.4,5.3c0,2.2-1.7,4.3-3.9,4.6v0.1
	C31.9,19.7,33.9,21.7,33.9,24.5L33.9,24.5z M25.6,12h-4.5v6.3h3.8c2.9,0,4.5-1.2,4.5-3.3C29.5,13.1,28.1,12,25.6,12L25.6,12z
	 M21.2,20.9v7h4.6c3,0,4.6-1.2,4.6-3.5s-1.7-3.5-4.8-3.5L21.2,20.9L21.2,20.9z"/>
</svg>
