<?xml version="1.0" encoding="utf-8"?>
<!-- Generator: Adobe Illustrator 23.1.0, SVG Export Plug-In . SVG Version: 6.00 Build 0)  -->
<svg version="1.1" id="Слой_1" xmlns="http://www.w3.org/2000/svg" xmlns:xlink="http://www.w3.org/1999/xlink" x="0px" y="0px"
	 viewBox="0 0 50 50" style="enable-background:new 0 0 50 50;" xml:space="preserve">
<style type="text/css">
	.st0{opacity:0.11;fill:#222F5C;}
</style>
<path class="st0" d="M49.1,22.8L27.2,0.9c-1.3-1.3-3.3-1.3-4.6,0l-4.5,4.5l5.8,5.8c1.3-0.5,2.9-0.1,3.9,0.9c1.1,1.1,1.4,2.6,0.9,4
	l5.5,5.5c1.3-0.5,2.9-0.2,4,0.9c1.5,1.5,1.5,3.9,0,5.4c-1.5,1.5-3.9,1.5-5.4,0c-1.1-1.1-1.4-2.8-0.8-4.2l-5.2-5.2l0,13.6
	c0.4,0.2,0.7,0.4,1,0.7c1.5,1.5,1.5,3.9,0,5.4c-1.5,1.5-3.9,1.5-5.4,0c-1.5-1.5-1.5-3.9,0-5.4c0.4-0.4,0.8-0.6,1.3-0.8V18.4
	c-0.5-0.2-0.9-0.5-1.3-0.8c-1.1-1.1-1.4-2.8-0.8-4.2l-5.7-5.7l-15,15c-1.3,1.3-1.3,3.3,0,4.6L22.8,49c1.3,1.3,3.3,1.3,4.6,0
	l21.7-21.7C50.3,26,50.3,24,49.1,22.8"/>
</svg>
