<?xml version="1.0" encoding="utf-8"?>
<!-- Generator: Adobe Illustrator 23.1.0, SVG Export Plug-In . SVG Version: 6.00 Build 0)  -->
<svg version="1.1" id="Слой_1" xmlns="http://www.w3.org/2000/svg" xmlns:xlink="http://www.w3.org/1999/xlink" x="0px" y="0px"
	 viewBox="0 0 50 48.6" style="enable-background:new 0 0 50 48.6;" xml:space="preserve">
<style type="text/css">
	.st0{opacity:0.11;}
	.st1{fill:#222F5C;}
</style>
<g class="st0">
	<path class="st1" d="M25-0.1c-13.8,0-25,11.2-25,25c0,11,7.2,20.4,17.1,23.7c1.2,0.2,1.7-0.5,1.7-1.2c0-0.6,0-2.6,0-4.7
		c-7,1.5-8.4-2.9-8.4-2.9c-1.1-2.9-2.8-3.7-2.8-3.7c-2.3-1.6,0.2-1.5,0.2-1.5c2.5,0.2,3.8,2.6,3.8,2.6c2.2,3.8,5.8,2.7,7.3,2.1
		c0.2-1.6,0.9-2.7,1.6-3.3C14.9,35.4,9,33.2,9,23.6c0-2.7,1-5,2.6-6.7c-0.3-0.6-1.1-3.2,0.2-6.6c0,0,2.1-0.7,6.9,2.6
		c2-0.6,4.1-0.8,6.3-0.8c2.1,0,4.3,0.3,6.3,0.8c4.8-3.2,6.9-2.6,6.9-2.6c1.4,3.4,0.5,6,0.2,6.6c1.6,1.8,2.6,4,2.6,6.7
		c0,9.6-5.8,11.7-11.4,12.3c0.9,0.8,1.7,2.3,1.7,4.6c0,3.3,0,6,0,6.9c0,0.7,0.4,1.4,1.7,1.2C42.8,45.3,50,36,50,24.9
		C50,11.1,38.8-0.1,25-0.1"/>
	<path class="st1" d="M9.4,35.6c-0.1,0.1-0.3,0.2-0.4,0.1c-0.2-0.1-0.3-0.3-0.2-0.4c0.1-0.1,0.2-0.2,0.4-0.1
		C9.3,35.3,9.4,35.4,9.4,35.6 M10.6,36.6c-0.1,0.1-0.4,0.1-0.5-0.1C9.9,36.4,9.9,36.1,10,36c0.1-0.1,0.3-0.1,0.5,0.1
		C10.7,36.3,10.7,36.5,10.6,36.6 M11.4,38.1c-0.2,0.1-0.4,0-0.6-0.2c-0.2-0.2-0.2-0.5,0-0.6c0.2-0.1,0.4,0,0.6,0.2
		C11.6,37.7,11.6,37.9,11.4,38.1 M12.9,39.7c-0.1,0.2-0.4,0.1-0.6-0.1c-0.2-0.2-0.3-0.5-0.1-0.6c0.1-0.2,0.4-0.1,0.6,0.1
		C12.9,39.2,13,39.5,12.9,39.7 M14.7,40.2c-0.1,0.2-0.3,0.3-0.6,0.2c-0.3-0.1-0.5-0.3-0.4-0.5c0.1-0.2,0.3-0.3,0.6-0.2
		C14.6,39.8,14.8,40,14.7,40.2 M16.8,40.5c0,0.2-0.2,0.4-0.5,0.4c-0.3,0-0.5-0.2-0.5-0.4c0-0.2,0.2-0.4,0.5-0.4
		C16.6,40.1,16.8,40.3,16.8,40.5 M18.9,40.4c0,0.2-0.2,0.4-0.5,0.5c-0.3,0.1-0.6-0.1-0.6-0.3c0-0.2,0.2-0.4,0.5-0.5
		C18.6,40.1,18.8,40.2,18.9,40.4"/>
</g>
</svg>
