<?xml version="1.0" encoding="utf-8"?>
<!-- Generator: Adobe Illustrator 23.1.0, SVG Export Plug-In . SVG Version: 6.00 Build 0)  -->
<svg version="1.1" id="Слой_1" xmlns="http://www.w3.org/2000/svg" xmlns:xlink="http://www.w3.org/1999/xlink" x="0px" y="0px"
	 viewBox="0 0 50 30.9" style="enable-background:new 0 0 50 30.9;" xml:space="preserve">
<style type="text/css">
	.st0{opacity:0.11;fill:#222F5C;}
</style>
<path class="st0" d="M46.6,30.8h-43c-1.9,0-3.6-1.6-3.6-3.6V3.6C0,1.7,1.6,0,3.6,0h42.8C48.4,0,50,1.7,50,3.6v23.7
	C50,29.2,48.5,30.8,46.6,30.8z M3.6,2.4C3,2.4,2.4,3,2.4,3.6v23.7c0,0.7,0.6,1.2,1.2,1.2h42.8c0.7,0,1.2-0.6,1.2-1.2V3.6
	c0-0.7-0.6-1.2-1.2-1.2C46.4,2.4,3.6,2.4,3.6,2.4z M7.2,23.7V7.2H12l4.8,6l4.8-6h4.8v16.5h-4.8v-9.4l-4.8,6l-4.8-6v9.4L7.2,23.7
	L7.2,23.7z M37.3,23.7l-7.2-7.9h4.8V7.2h4.8v8.4h4.8L37.3,23.7L37.3,23.7z"/>
</svg>
