<?xml version="1.0" encoding="utf-8"?>
<!-- Generator: Adobe Illustrator 23.1.0, SVG Export Plug-In . SVG Version: 6.00 Build 0)  -->
<svg version="1.1" id="Слой_1" xmlns="http://www.w3.org/2000/svg" xmlns:xlink="http://www.w3.org/1999/xlink" x="0px" y="0px"
	 viewBox="0 0 45.4 50" style="enable-background:new 0 0 45.4 50;" xml:space="preserve">
<style type="text/css">
	.st0{opacity:0.11;}
	.st1{fill:#222F5C;}
</style>
<g class="st0">
	<path class="st1" d="M20.4,0.3c1.2-0.7,2.9-0.7,4.1,0c6.2,3.5,12.5,7,18.7,10.6c1.2,0.7,2,2,1.9,3.3v21.2c0,1.4-0.9,2.7-2.1,3.4
		c-6.2,3.5-12.4,7-18.6,10.5c-1.3,0.7-2.9,0.7-4.1-0.1c-1.9-1.1-3.7-2.2-5.6-3.2c-0.4-0.2-0.8-0.4-1.1-0.8c0.2-0.3,0.7-0.4,1-0.5
		c0.8-0.2,1.5-0.6,2.2-1c0.2-0.1,0.4-0.1,0.6,0c1.6,0.9,3.2,1.9,4.8,2.8c0.3,0.2,0.7-0.1,1-0.2c6.1-3.4,12.2-6.9,18.3-10.3
		c0.2-0.1,0.4-0.3,0.3-0.6c0-7,0-14,0-21c0-0.3-0.1-0.5-0.4-0.7c-6.2-3.5-12.4-7-18.6-10.5c-0.2-0.2-0.5-0.2-0.7,0
		c-6.2,3.5-12.4,7-18.6,10.5c-0.3,0.1-0.4,0.4-0.4,0.7c0,7,0,14,0,21c0,0.2,0.1,0.5,0.3,0.6c1.7,0.9,3.3,1.9,5,2.8
		c0.9,0.5,2.1,0.8,3.1,0.4c0.9-0.3,1.5-1.2,1.5-2.2c0-6.9,0-13.9,0-20.8c0-0.3,0.3-0.6,0.6-0.5c0.8,0,1.6,0,2.4,0
		c0.3,0,0.6,0.3,0.5,0.6c0,7,0,14,0,21c0,1.9-0.8,3.9-2.5,4.8c-2.1,1.1-4.7,0.9-6.8-0.2c-1.8-0.9-3.5-2-5.3-2.9
		c-1.2-0.6-2.1-2-2.1-3.4V14.2c0-1.4,0.8-2.7,2-3.4C8,7.3,14.2,3.8,20.4,0.3z"/>
	<path class="st1" d="M25.8,15c2.7-0.2,5.6-0.1,8,1.2c1.9,1,2.9,3.2,3,5.3c-0.1,0.3-0.3,0.4-0.6,0.4c-0.8,0-1.6,0-2.4,0
		c-0.3,0-0.5-0.3-0.6-0.6c-0.2-1-0.8-2-1.7-2.5c-1.4-0.7-3.1-0.7-4.7-0.7c-1.2,0.1-2.4,0.2-3.4,0.8c-0.8,0.5-1,1.6-0.7,2.4
		c0.3,0.6,0.9,0.8,1.5,1c3.3,0.9,6.7,0.8,9.9,1.9c1.3,0.5,2.6,1.3,3.1,2.7c0.6,1.9,0.3,4.1-1,5.6c-1.1,1.2-2.6,1.9-4.2,2.3
		c-2.1,0.5-4.2,0.5-6.3,0.3c-2-0.2-4-0.7-5.6-2.1c-1.3-1.1-1.9-2.9-1.9-4.6c0-0.3,0.3-0.5,0.6-0.5c0.8,0,1.6,0,2.4,0
		c0.3,0,0.6,0.3,0.6,0.5c0.1,1,0.5,2,1.3,2.5c1.6,1,3.6,1,5.5,1c1.5-0.1,3.2-0.1,4.5-1.1c0.7-0.6,0.9-1.5,0.7-2.4
		c-0.2-0.7-0.9-1-1.6-1.2c-3.2-1-6.7-0.6-9.9-1.8c-1.3-0.5-2.5-1.3-3-2.7c-0.7-1.9-0.4-4.2,1.1-5.7C21.8,15.7,23.9,15.2,25.8,15
		L25.8,15z"/>
</g>
</svg>
