<?xml version="1.0" encoding="utf-8"?>
<!-- Generator: Adobe Illustrator 23.1.0, SVG Export Plug-In . SVG Version: 6.00 Build 0)  -->
<svg version="1.1" id="Слой_1" xmlns="http://www.w3.org/2000/svg" xmlns:xlink="http://www.w3.org/1999/xlink" x="0px" y="0px"
	 viewBox="0 0 50 37.5" style="enable-background:new 0 0 50 37.5;" xml:space="preserve">
<style type="text/css">
	.st0{opacity:0.11;fill:#222F5C;}
</style>
<path class="st0" d="M43,21.5c-1.7,0-3.3,0.4-4.5,1.1c-0.5-0.9-0.9-1.7-1-2.3c-0.1-0.7-0.2-1.1-0.1-2c0.1-0.8,0.6-2,0.6-2.1
	c0-0.1-0.1-0.5-1.1-0.5s-1.9,0.2-2,0.5c-0.1,0.3-0.3,0.9-0.4,1.5c-0.2,0.9-2,4.2-3.1,5.9c-0.3-0.7-0.6-1.3-0.7-1.7
	c-0.1-0.7-0.2-1.1-0.1-2c0.1-0.8,0.6-2,0.6-2.1c0-0.1-0.1-0.5-1.1-0.5c-1,0-1.9,0.2-2,0.5c-0.1,0.3-0.2,0.9-0.4,1.5
	c-0.2,0.6-2.6,6-3.3,7.5c-0.3,0.7-0.6,1.3-0.8,1.7c-0.2,0.4,0,0,0,0.1c-0.2,0.3-0.3,0.5-0.3,0.5v0c-0.1,0.2-0.3,0.5-0.4,0.5
	c0,0-0.1-0.7,0-1.6c0.4-1.9,1.2-4.8,1.2-4.9c0,0,0.2-0.6-0.6-0.8c-0.7-0.3-1,0.2-1,0.2c-0.1,0-0.1,0.2-0.1,0.2S23.3,19,21,19
	c-1.4,0-3.4,1.6-4.4,3c-0.6,0.3-2,1.1-3.4,1.8c-0.5,0.3-1.1,0.6-1.6,0.9l-0.1-0.1c-2.8-3-8-5.1-7.7-9.1c0.1-1.5,0.6-5.3,9.9-9.9
	c7.6-3.8,13.8-2.8,14.8-0.4c1.5,3.3-3.3,9.5-11.2,10.4c-3,0.3-4.6-0.8-5-1.3c-0.4-0.5-0.5-0.5-0.6-0.4c-0.3,0.1-0.1,0.5,0,0.8
	c0.2,0.6,1.2,1.7,2.9,2.3c1.5,0.5,5,0.7,9.3-0.9c4.8-1.9,8.6-7,7.5-11.4C30.2,0.2,22.9-1.3,16,1.2C11.9,2.7,7.4,4.9,4.2,7.9
	c-3.8,3.6-4.4,6.7-4.2,7.9c0.9,4.6,7.2,7.6,9.8,9.8c-0.1,0.1-0.2,0.1-0.4,0.2c-1.3,0.6-6.1,3.2-7.3,5.8c-1.4,3,0.2,5.2,1.3,5.5
	c3.3,0.9,6.6-0.7,8.4-3.4c1.8-2.7,1.6-6.2,0.8-7.8l0-0.1l1-0.6c0.6-0.4,1.3-0.7,1.8-1c-0.3,0.8-0.5,1.9-0.7,3.3
	c-0.1,1.7,0.6,3.9,1.5,4.8c0.4,0.4,0.9,0.4,1.2,0.4c1.1,0,1.6-0.9,2.1-2c0.7-1.3,1.3-2.8,1.3-2.8S20,32.2,22,32.2
	c0.7,0,1.5-0.9,1.8-1.4v0c0,0,0,0,0.1-0.1c0-0.1,0.1-0.1,0.1-0.2v0c0.3-0.5,0.9-1.7,1.9-3.6c1.3-2.5,2.5-5.6,2.5-5.6s0.1,0.8,0.5,2
	c0.2,0.7,0.7,1.6,1,2.3c-0.3,0.4-0.5,0.6-0.5,0.6l0,0c-0.2,0.3-0.5,0.6-0.8,1c-1,1.2-2.2,2.5-2.3,2.9c-0.2,0.5-0.1,0.8,0.2,1.1
	c0.3,0.2,0.7,0.2,1.2,0.2c0.9-0.1,1.5-0.3,1.8-0.4c0.5-0.2,1-0.4,1.6-0.8c1-0.7,1.6-1.7,1.5-3.1c0-0.8-0.3-1.5-0.6-2.2
	c0.1-0.1,0.2-0.3,0.3-0.4c1.5-2.3,2.7-4.7,2.7-4.7s0.1,0.8,0.5,2c0.2,0.6,0.6,1.3,0.9,2c-1.4,1.2-2.4,2.5-2.7,3.4
	c-0.6,1.7-0.1,2.4,0.7,2.6c0.4,0.1,0.9-0.1,1.3-0.3c0.5-0.2,1.1-0.4,1.7-0.9c1-0.7,1.9-1.7,1.9-3.1c0-0.6-0.2-1.2-0.4-1.8
	c1.2-0.5,2.8-0.8,4.8-0.6c4.3,0.5,5.2,3.2,5,4.4c-0.2,1.1-1.1,1.8-1.4,2c-0.3,0.2-0.4,0.3-0.4,0.4c0,0.2,0.2,0.2,0.4,0.2
	c0.4-0.1,2.3-0.9,2.4-3C50.1,24.4,47.6,21.5,43,21.5L43,21.5z M9.5,32.8c-1.4,1.6-3.5,2.2-4.3,1.7C4.3,34,4.6,31.6,6.4,30
	c1.1-1,2.5-2,3.4-2.5c0.2-0.1,0.5-0.3,0.9-0.5c0.1,0,0.1-0.1,0.1-0.1c0.1,0,0.1-0.1,0.2-0.1C11.7,29.1,11,31.2,9.5,32.8L9.5,32.8z
	 M20,25.7c-0.5,1.2-1.6,4.4-2.2,4.2c-0.5-0.1-0.9-2.5-0.1-4.9c0.4-1.2,1.2-2.6,1.7-3.1c0.8-0.9,1.7-1.2,1.9-0.8
	C21.6,21.5,20.3,24.9,20,25.7z M28.7,29.8c-0.2,0.1-0.4,0.2-0.5,0.1c-0.1,0,0.1-0.2,0.1-0.2s1.1-1.2,1.5-1.7
	c0.2-0.3,0.5-0.7,0.8-1.1v0.1C30.6,28.5,29.3,29.5,28.7,29.8L28.7,29.8z M35.4,28.3c-0.2-0.1-0.1-0.5,0.4-1.6
	c0.2-0.4,0.7-1.2,1.5-1.9c0.1,0.3,0.2,0.6,0.1,0.8C37.4,27.4,36.1,28,35.4,28.3z"/>
</svg>
