<?xml version="1.0" encoding="utf-8"?>
<!-- Generator: Adobe Illustrator 23.1.0, SVG Export Plug-In . SVG Version: 6.00 Build 0)  -->
<svg version="1.1" id="Слой_1" xmlns="http://www.w3.org/2000/svg" xmlns:xlink="http://www.w3.org/1999/xlink" x="0px" y="0px"
	 viewBox="0 0 50 50" style="enable-background:new 0 0 50 50;" xml:space="preserve">
<style type="text/css">
	.st0{opacity:0.11;fill:#222F5C;}
</style>
<g>
	<polygon class="st0" points="46.1,38.5 25.9,50 25.9,41.1 38.5,34.1 	"/>
	<polygon class="st0" points="47.5,37.3 47.5,13.3 40.1,17.6 40.1,33 47.5,37.3 	"/>
	<polygon class="st0" points="3.8,38.5 24.1,50 24.1,41.1 11.4,34.1 3.8,38.5 	"/>
	<polygon class="st0" points="2.4,37.3 2.4,13.3 9.8,17.6 9.8,33 2.4,37.3 	"/>
	<polygon class="st0" points="3.3,11.8 24.1,0 24.1,8.6 10.8,16 10.7,16 	"/>
	<polygon class="st0" points="46.6,11.8 25.9,0 25.9,8.6 39.2,16 39.3,16 	"/>
	<path class="st0" d="M24.1,39l-12.5-6.8V18.6l12.5,7.2V39 M25.9,39l12.5-6.8V18.6l-12.5,7.2V39 M12.5,17.1L25,10.2l12.5,6.9
		L25,24.3L12.5,17.1"/>
</g>
</svg>
